<svg width="215" height="201" fill="none" xmlns="http://www.w3.org/2000/svg"><g opacity=".4"><path d="M156.825 1.467 197.152 0l-1.463 40.25-6.722-.235 1.029-28.121L60.001 141.64l-4.753-4.745L185.25 7.142 157.067 8.17l-.242-6.702Z" fill="url(#a)" style="mix-blend-mode:screen"/><path d="m129.333 90.04-.198-5.573 33.523-1.225-1.212 33.467-5.591-.198.859-23.377L48.643 201l-3.953-3.945L152.77 89.182l-23.436.858Z" fill="url(#b)" style="mix-blend-mode:screen"/><path d="m175.251 104.192-.096-2.706 16.273-.594-.587 16.25-2.711-.095.411-11.352-52.463 52.364-1.918-1.914 52.464-52.364-11.373.411Z" fill="url(#c)" style="mix-blend-mode:screen"/><path d="m105.573 102.439-.095-2.705 16.273-.594-.588 16.242-2.711-.095.411-11.344L66.4 156.299l-1.918-1.914 52.471-52.364-11.38.418Z" fill="url(#d)" style="mix-blend-mode:screen"/><path d="m76.37 16.037-.096-2.706 16.274-.594-.596 16.242-2.71-.095.418-11.344-52.463 52.356-1.918-1.913 52.464-52.364-11.373.418Z" fill="url(#e)" style="mix-blend-mode:screen"/><path d="m189.341 53.2-.051-1.372 8.258-.3-.301 8.242-1.374-.044.213-5.764-26.625 26.575-.97-.976 26.618-26.574-5.768.213Z" fill="url(#f)" style="mix-blend-mode:screen"/><path d="m94.253 77.581-.044-1.37 8.257-.302-.301 8.242-1.374-.043.206-5.764-26.618 26.574-.977-.975 26.625-26.567-5.774.205Z" fill="url(#g)" style="mix-blend-mode:screen"/><path d="m211.787 98.656-.044-1.372 8.257-.3-.301 8.242-1.374-.044.206-5.764-26.617 26.575-.977-.976 26.624-26.566-5.774.205Z" fill="url(#h)" style="mix-blend-mode:screen"/><path d="m131.905 2.772-.044-1.371 8.258-.301-.302 8.242-1.373-.051.205-5.757-26.617 26.567-.977-.968L137.679 2.56l-5.774.213Z" fill="url(#i)" style="mix-blend-mode:screen"/><path d="m111.164 68.745.853-23.377L3.953 153.234 0 149.289 108.079 41.416l-23.436.858-.199-5.58 33.524-1.218-1.213 33.467-5.591-.198Z" fill="url(#j)" style="mix-blend-mode:screen"/></g><defs><linearGradient id="a" x1="181.799" y1="-8.846" x2="86.326" y2="156.815" gradientUnits="userSpaceOnUse"><stop offset=".11" stop-color="#CAFF33"/><stop offset="1" stop-color="#191919" stop-opacity="0"/></linearGradient><linearGradient id="b" x1="149.895" y1="75.888" x2="70.518" y2="213.61" gradientUnits="userSpaceOnUse"><stop offset=".11" stop-color="#CAFF33"/><stop offset="1" stop-color="#191919" stop-opacity="0"/></linearGradient><linearGradient id="c" x1="185.233" y1="97.322" x2="146.698" y2="164.181" gradientUnits="userSpaceOnUse"><stop offset=".11" stop-color="#CAFF33"/><stop offset="1" stop-color="#191919" stop-opacity="0"/></linearGradient><linearGradient id="d" x1="115.555" y1="95.57" x2="77.028" y2="162.424" gradientUnits="userSpaceOnUse"><stop offset=".11" stop-color="#CAFF33"/><stop offset="1" stop-color="#191919" stop-opacity="0"/></linearGradient><linearGradient id="e" x1="86.352" y1="9.167" x2="47.825" y2="76.022" gradientUnits="userSpaceOnUse"><stop offset=".11" stop-color="#CAFF33"/><stop offset="1" stop-color="#191919" stop-opacity="0"/></linearGradient><linearGradient id="f" x1="194.404" y1="49.716" x2="174.849" y2="83.641" gradientUnits="userSpaceOnUse"><stop offset=".11" stop-color="#CAFF33"/><stop offset="1" stop-color="#191919" stop-opacity="0"/></linearGradient><linearGradient id="g" x1="99.322" y1="74.098" x2="79.769" y2="108.027" gradientUnits="userSpaceOnUse"><stop offset=".11" stop-color="#CAFF33"/><stop offset="1" stop-color="#191919" stop-opacity="0"/></linearGradient><linearGradient id="h" x1="216.856" y1="95.172" x2="197.303" y2="129.101" gradientUnits="userSpaceOnUse"><stop offset=".11" stop-color="#CAFF33"/><stop offset="1" stop-color="#191919" stop-opacity="0"/></linearGradient><linearGradient id="i" x1="136.974" y1="-.711" x2="117.429" y2="33.213" gradientUnits="userSpaceOnUse"><stop offset=".11" stop-color="#CAFF33"/><stop offset="1" stop-color="#191919" stop-opacity="0"/></linearGradient><linearGradient id="j" x1="105.205" y1="28.122" x2="25.827" y2="165.844" gradientUnits="userSpaceOnUse"><stop offset=".11" stop-color="#CAFF33"/><stop offset="1" stop-color="#191919" stop-opacity="0"/></linearGradient></defs></svg>