<svg aria-hidden="true" style="position: absolute; width: 0; height: 0; overflow: hidden;" version="1.1" xmlns="http://www.w3.org/2000/svg" xmlns:xlink="http://www.w3.org/1999/xlink">
<defs>
<symbol id="icon-logo" viewBox="0 0 31 32">
<path fill="#caff33" style="fill: var(--color1, #caff33)" d="M7.704 16.207l7.704-7.704 7.704 7.704-7.704 7.704-7.704-7.704z"></path>
<path fill="#caff33" style="fill: var(--color1, #caff33)" d="M28.248 11.072l-5.137 5.135v-7.704h-7.704l5.137-5.135h7.704v7.704zM28.248 21.344l-5.137-5.137v7.704h-7.704l5.137 5.137h7.704v-7.704zM2.568 21.344l5.135-5.137v7.704h7.704l-5.135 5.138h-7.704v-7.704zM2.568 11.072l5.135 5.135v-7.704h7.704l-5.135-5.135h-7.704v7.704z"></path>
</symbol>
<symbol id="icon-yourbank" viewBox="0 0 197 32">
<path fill="#fff" style="fill: var(--color2, #fff)" d="M28.213 0.112l-10.651 18.808v12.389h-5.021v-12.389l-10.648-18.808h5.717l7.467 13.813 7.419-13.811h5.717zM37.147 31.888c-3.2 0-5.92-1.128-8.16-3.387s-3.36-5.035-3.36-8.333 1.12-6.077 3.36-8.336c2.24-2.256 4.96-3.387 8.16-3.387 3.232 0 5.955 1.131 8.165 3.387 2.24 2.259 3.36 5.037 3.36 8.336s-1.12 6.075-3.36 8.333c-2.213 2.259-4.933 3.387-8.163 3.387zM32.304 25.203c1.307 1.339 2.925 2.005 4.845 2.005s3.536-0.667 4.845-2.005c1.309-1.336 1.965-3.013 1.965-5.035s-0.656-3.699-1.965-5.037c-1.309-1.336-2.925-2.005-4.845-2.005s-3.536 0.667-4.845 2.005c-1.309 1.339-1.965 3.016-1.965 5.037 0 2.019 0.656 3.699 1.965 5.035zM67.648 9.024h4.715v22.285h-4.715v-2.853c-1.427 2.288-3.68 3.432-6.765 3.432-2.504 0-4.525-0.816-6.069-2.451-1.541-1.635-2.312-3.877-2.312-6.731v-13.68h4.715v13.192c0 1.664 0.435 2.941 1.307 3.832 0.875 0.891 2.069 1.336 3.581 1.336 1.659 0 2.997-0.52 4.016-1.56 1.019-1.067 1.528-2.688 1.528-4.856v-11.947zM82.592 12.768c1.192-2.763 3.432-4.144 6.72-4.144v5.213c-1.803-0.117-3.373 0.328-4.712 1.339-1.339 0.981-2.008 2.613-2.008 4.901v11.232h-4.715v-22.285h4.715v3.744zM111.088 15.131c1.339 0.715 2.387 1.693 3.144 2.941 0.755 1.248 1.133 2.691 1.133 4.323 0 2.557-0.888 4.68-2.661 6.373-1.776 1.696-3.944 2.541-6.507 2.541h-13.093v-31.2h12.133c2.504 0 4.613 0.835 6.331 2.499 1.747 1.635 2.619 3.683 2.619 6.149 0 2.704-1.032 4.827-3.099 6.373zM105.237 4.925h-7.115v8.2h7.117c0.023 0.001 0.050 0.001 0.078 0.001 1.066 0 2.029-0.444 2.713-1.157l0.001-0.001c0.757-0.803 1.136-1.784 1.136-2.944 0-1.157-0.379-2.123-1.136-2.896-0.677-0.741-1.648-1.203-2.727-1.203-0.023 0-0.046 0-0.069 0.001l0.003-0zM106.197 26.499c1.165 0 2.141-0.419 2.925-1.251 0.816-0.861 1.224-1.901 1.224-3.12s-0.408-2.243-1.224-3.075c-0.7-0.795-1.719-1.294-2.855-1.294-0.024 0-0.047 0-0.071 0.001l0.004-0h-8.077v8.736h8.077zM136.941 9.024h4.715v22.285h-4.715v-3.208c-1.776 2.525-4.32 3.787-7.64 3.787-2.997 0-5.557-1.128-7.68-3.387-2.125-2.288-3.189-5.067-3.189-8.333 0-3.299 1.061-6.077 3.187-8.336 2.125-2.256 4.685-3.387 7.683-3.387 3.32 0 5.867 1.248 7.64 3.744v-3.165zM125.112 25.291c1.307 1.339 2.955 2.008 4.933 2.008s3.621-0.667 4.933-2.005c1.307-1.368 1.963-3.075 1.963-5.125s-0.653-3.744-1.963-5.083c-1.312-1.365-2.955-2.048-4.933-2.048s-3.627 0.683-4.933 2.048c-1.309 1.339-1.965 3.032-1.965 5.083s0.656 3.76 1.965 5.125zM158.632 8.445c2.504 0 4.525 0.819 6.069 2.453 1.541 1.632 2.312 3.875 2.312 6.728v13.683h-4.715v-13.192c0-1.664-0.435-2.941-1.307-3.832-0.875-0.893-2.069-1.339-3.581-1.339-1.659 0-2.997 0.533-4.016 1.605-1.019 1.040-1.528 2.645-1.528 4.813v11.947h-4.715v-22.291h4.715v2.853c1.427-2.288 3.68-3.432 6.765-3.432zM195.445 31.309h-5.979l-12.053-14.84v14.84h-5.013v-31.2h5.019v13.997l11.611-13.995h5.981l-12.355 15.195 12.789 16z"></path>
</symbol>
<symbol id="icon-mobile-menu" viewBox="0 0 32 32">
<path d="M4 9c0-0.552 0.448-1 1-1h22c0.552 0 1 0.448 1 1s-0.448 1-1 1v0h-22c-0.552 0-1-0.448-1-1v0zM4 16c0-0.552 0.448-1 1-1h22c0.552 0 1 0.448 1 1s-0.448 1-1 1v0h-22c-0.552 0-1-0.448-1-1v0zM15 23c0-0.552 0.448-1 1-1h11c0.552 0 1 0.448 1 1s-0.448 1-1 1v0h-11c-0.552 0-1-0.448-1-1v0z"></path>
</symbol>
<symbol id="icon-check" viewBox="0 0 34 32">
<path fill="#caff33" style="fill: var(--color1, #caff33)" d="M12.272 5.066c1.098-1.264 2.72-2.066 4.528-2.066s3.43 0.8 4.528 2.064c0.127-0.010 0.275-0.015 0.425-0.015 1.656 0 3.155 0.672 4.239 1.759l0 0c1.28 1.28 1.861 2.992 1.744 4.662 1.264 1.099 2.064 2.72 2.064 4.53 0 1.808-0.8 3.43-2.064 4.53 0.010 0.127 0.015 0.274 0.015 0.423 0 1.656-0.672 3.155-1.759 4.239l-0 0c-1.28 1.28-2.992 1.859-4.662 1.744-1.099 1.264-2.72 2.064-4.53 2.064-1.808 0-3.43-0.8-4.528-2.064-0.128 0.010-0.276 0.015-0.426 0.015-1.656 0-3.155-0.672-4.239-1.759l-0-0c-1.278-1.28-1.859-2.992-1.742-4.662-1.267-1.104-2.064-2.72-2.064-4.523 0-0.002 0-0.005 0-0.007v0c0-1.808 0.8-3.43 2.064-4.528-0.010-0.127-0.015-0.275-0.015-0.425 0-1.656 0.672-3.155 1.759-4.239l0-0c1.28-1.28 2.992-1.859 4.662-1.744zM21.614 13.581c0.116-0.161 0.186-0.363 0.186-0.581 0-0.552-0.448-1-1-1-0.335 0-0.631 0.164-0.812 0.417l-0.002 0.003-4.314 6.038-2.165-2.165c-0.181-0.181-0.431-0.293-0.707-0.293-0.552 0-1 0.448-1 1 0 0.276 0.112 0.526 0.293 0.707v0l3 3c0.181 0.181 0.431 0.292 0.706 0.292 0.334 0 0.63-0.164 0.812-0.416l0.002-0.003 5.002-7z"></path>
</symbol>
<symbol id="icon-arrows" viewBox="0 0 32 32">
<path d="M20.603 4.212c-0.189 0.201-0.305 0.472-0.305 0.771 0 0.328 0.14 0.623 0.363 0.829l0.001 0.001 3.19 2.951h-13.046c-0.001 0-0.003 0-0.005 0-0.626 0-1.134 0.506-1.137 1.132v0c0 0.625 0.51 1.132 1.14 1.132h13.046l-3.185 2.944c-0.225 0.207-0.365 0.502-0.365 0.831 0 0.298 0.115 0.569 0.304 0.77l-0.001-0.001c0.209 0.224 0.507 0.364 0.837 0.364 0.299 0 0.572-0.115 0.776-0.303l-0.001 0.001 5.317-4.911c0.223-0.207 0.363-0.502 0.363-0.83s-0.139-0.623-0.362-0.829l-0.001-0.001-5.317-4.911c-0.203-0.188-0.476-0.304-0.776-0.304-0.329 0-0.626 0.139-0.835 0.362l-0.001 0.001zM10.88 16.298c-0.209-0.223-0.506-0.361-0.835-0.361-0.299 0-0.572 0.115-0.776 0.303l0.001-0.001-5.317 4.906c-0.224 0.207-0.363 0.503-0.363 0.831s0.139 0.623 0.362 0.83l0.001 0.001 5.317 4.908c0.46 0.426 1.182 0.399 1.61-0.059 0.187-0.201 0.302-0.472 0.302-0.769 0-0.328-0.14-0.624-0.363-0.83l-0.001-0.001-3.188-2.944h13.046c0.001 0 0.002 0 0.002 0 0.626 0 1.134-0.506 1.137-1.132v-0c-0.003-0.626-0.511-1.132-1.137-1.132-0.001 0-0.002 0-0.003 0h-13.046l3.185-2.951c0.225-0.207 0.365-0.502 0.365-0.831 0-0.298-0.115-0.569-0.304-0.77l0.001 0.001z"></path>
</symbol>
<symbol id="icon-plus" viewBox="0 0 32 32">
<path d="M16.825 7.237c0.524 0 0.95 0.421 0.95 0.943v6.609h6.646c0.524 0 0.948 0.423 0.948 0.943-0.001 0.522-0.425 0.945-0.948 0.945 0 0 0 0 0 0h-6.646v6.609c-0.003 0.521-0.426 0.943-0.948 0.943-0.001 0-0.002 0-0.003 0h0c0 0 0 0 0 0-0.522 0-0.945-0.421-0.948-0.942v-6.61h-6.646c-0.001 0-0.002 0-0.002 0-0.523 0-0.946-0.423-0.948-0.945v-0c0-0.519 0.426-0.943 0.95-0.943h6.646v-6.609c0-0.522 0.423-0.945 0.948-0.945z"></path>
</symbol>
<symbol id="icon-pir" viewBox="0 0 32 32">
<path fill="#262626" style="fill: var(--color1, #262626)" d="M30.934 16.209c0 8.173-6.662 14.799-14.88 14.799s-14.88-6.625-14.88-14.799 6.662-14.799 14.88-14.799 14.88 6.625 14.88 14.799z"></path>
<path fill="#caff33" style="fill: var(--color2, #caff33)" opacity="0.8" d="M16.004 9.344l-0.092 0.31v9.015l0.092 0.092 4.208-2.473-4.208-6.944z"></path>
<path fill="#caff33" style="fill: var(--color2, #caff33)" opacity="0.8" d="M16.004 9.344l-4.208 6.943 4.208 2.473v-9.414zM16.004 20.122l-0.051 0.063v3.212l0.051 0.15 4.211-5.897-4.211 2.473z"></path>
<path fill="#caff33" style="fill: var(--color2, #caff33)" opacity="0.8" d="M16.004 23.546v-3.424l-4.208-2.473 4.208 5.897zM16.004 18.761l4.208-2.473-4.208-1.903v4.375z"></path>
<path fill="#caff33" style="fill: var(--color2, #caff33)" opacity="0.8" d="M11.796 16.287l4.208 2.474v-4.375l-4.208 1.901z"></path>
</symbol>
<symbol id="icon-bit" viewBox="0 0 31 32">
<path fill="#262626" style="fill: var(--color1, #262626)" d="M29.59 19.808c-1.997 7.971-10.115 12.82-18.129 10.833-8.013-1.987-12.889-10.060-10.89-18.031 1.997-7.971 10.113-12.82 18.127-10.836 8.015 1.988 12.892 10.063 10.893 18.032z"></path>
<path fill="#caff33" style="fill: var(--color2, #caff33)" d="M19.583 14.481c0.202-1.344-0.826-2.065-2.233-2.547l0.457-1.818-1.114-0.276-0.444 1.77c-0.292-0.073-0.593-0.141-0.892-0.208l0.447-1.783-1.113-0.276-0.455 1.818c-0.243-0.054-0.48-0.108-0.713-0.166l0.003-0.006-1.536-0.381-0.297 1.183s0.826 0.189 0.809 0.201c0.451 0.112 0.534 0.407 0.519 0.644l-0.519 2.071c0.031 0.009 0.071 0.020 0.116 0.038l-0.118-0.029-0.729 2.903c-0.055 0.135-0.195 0.34-0.509 0.262-0.394-0.086-0.666-0.155-0.936-0.231l0.125 0.030-0.553 1.268 1.449 0.359 0.486 0.124 0.308 0.080-0.461 1.84 1.111 0.276 0.457-1.821c0.304 0.083 0.599 0.159 0.887 0.23l-0.454 1.812 1.113 0.276 0.461-1.837c1.898 0.356 3.327 0.212 3.927-1.495 0.483-1.375-0.025-2.167-1.024-2.685 0.727-0.167 1.276-0.643 1.423-1.626zM17.037 18.029c-0.317 1.261-2.304 0.739-3.212 0.5 0.032 0.004-0.041-0.015-0.113-0.033l-0.103-0.022 0.611-2.438 0.275 0.063c0.94 0.209 2.865 0.64 2.543 1.93zM14.684 14.969c0.756 0.201 2.409 0.64 2.697-0.509 0.294-1.172-1.312-1.526-2.096-1.697-0.141-0.029-0.218-0.047-0.295-0.066l0.065 0.014-0.554 2.211 0.183 0.048z"></path>
</symbol>
<symbol id="icon-euro" viewBox="0 0 31 32">
<path fill="#262626" style="fill: var(--color1, #262626)" d="M30.433 16.209c0 8.175-6.662 14.799-14.88 14.799s-14.88-6.625-14.88-14.799 6.662-14.799 14.88-14.799 14.88 6.625 14.88 14.799z"></path>
<path fill="#caff33" style="fill: var(--color2, #caff33)" d="M19.735 22.393l-0.343-1.551c-0.018-0.088-0.072-0.161-0.147-0.203l-0.002-0.001c-0.043-0.025-0.094-0.040-0.148-0.040-0.038 0-0.075 0.007-0.108 0.021l0.002-0.001-0.049 0.019-0.116 0.029c-0.054 0.013-0.113 0.029-0.183 0.044-0.145 0.037-0.325 0.069-0.508 0.091l-0.021 0.002c-0.102 0.013-0.209 0.025-0.327 0.035-0.118 0.009-0.236 0.015-0.353 0.015-0.829 0-1.578-0.224-2.24-0.669-0.655-0.442-1.162-1.058-1.458-1.783l-0.009-0.026h3.796c0.071 0 0.137-0.023 0.195-0.073 0.055-0.044 0.094-0.107 0.107-0.179l0-0.002 0.236-1.092c0.005-0.021 0.008-0.045 0.008-0.070 0-0.073-0.025-0.14-0.067-0.194l0.001 0.001c-0.057-0.071-0.143-0.116-0.241-0.116-0.002 0-0.004 0-0.005 0h-4.5c-0.010-0.153-0.015-0.332-0.015-0.513s0.005-0.359 0.016-0.537l-0.001 0.024h4.785c0.176 0 0.281-0.084 0.314-0.253l0.236-1.111c0.004-0.018 0.006-0.039 0.006-0.060 0-0.075-0.029-0.143-0.076-0.194l0 0c-0.053-0.071-0.137-0.117-0.232-0.117-0.004 0-0.009 0-0.013 0l0.001-0h-4.591c0.327-0.727 0.817-1.3 1.472-1.716s1.392-0.625 2.217-0.625c0.034-0.005 0.073-0.007 0.113-0.007 0.062 0 0.122 0.006 0.18 0.019l-0.006-0.001c0.167 0.020 0.262 0.029 0.285 0.025 0.022-0.003 0.108 0.007 0.255 0.029l0.221 0.035 0.172 0.033c0.049 0.010 0.087 0.017 0.113 0.025l0.039 0.009c0.027 0.010 0.059 0.015 0.092 0.015 0.052 0 0.102-0.014 0.144-0.039l-0.001 0.001c0.070-0.041 0.121-0.108 0.138-0.189l0-0.002 0.422-1.551c0.007-0.024 0.010-0.052 0.010-0.080 0-0.056-0.015-0.109-0.040-0.155l0.001 0.002c-0.047-0.068-0.115-0.119-0.194-0.145l-0.003-0.001c-0.561-0.143-1.206-0.226-1.87-0.226-0.012 0-0.023 0-0.035 0h0.002c-0.024-0-0.053-0.001-0.081-0.001-1.445 0-2.781 0.468-3.865 1.261l0.018-0.013c-1.12 0.802-1.958 1.934-2.377 3.252l-0.012 0.045h-0.96c-0.003-0-0.007-0-0.011-0-0.083 0-0.159 0.033-0.214 0.088l0-0c-0.055 0.055-0.089 0.131-0.089 0.214 0 0.003 0 0.007 0 0.010v-0.001 1.113c0 0.090 0.029 0.166 0.087 0.224 0.060 0.058 0.135 0.087 0.227 0.087h0.656c-0.019 0.313-0.022 0.655-0.009 1.024h-0.647c-0.001 0-0.002 0-0.003 0-0.086 0-0.163 0.036-0.218 0.093l-0 0c-0.057 0.054-0.093 0.131-0.093 0.216 0 0.001 0 0.001 0 0.002v-0 1.103c0 0.086 0.031 0.159 0.093 0.22 0.055 0.057 0.133 0.093 0.218 0.093 0.001 0 0.002 0 0.003 0h0.931c0.412 1.437 1.19 2.58 2.335 3.428s2.481 1.273 4.012 1.273c0.001 0 0.003 0 0.005 0 0.478 0 0.946-0.048 1.397-0.138l-0.045 0.008 0.25-0.049c0.079-0.016 0.15-0.033 0.211-0.054 0.063-0.019 0.115-0.033 0.157-0.044 0.039-0.008 0.073-0.020 0.105-0.035l-0.003 0.001 0.051-0.010c0.072-0.026 0.129-0.076 0.165-0.14l0.001-0.002c0.025-0.041 0.039-0.091 0.039-0.144 0-0.027-0.004-0.053-0.011-0.077l0 0.002z"></path>
</symbol>
<symbol id="icon-usd" viewBox="0 0 32 32">
<path fill="#262626" style="fill: var(--color1, #262626)" d="M16.035 31.087c8.262 0 14.959-6.662 14.959-14.879 0-8.215-6.697-14.876-14.959-14.876s-14.96 6.66-14.96 14.876c0 8.218 6.698 14.879 14.96 14.879z"></path>
<path fill="#caff33" style="fill: var(--color2, #caff33)" d="M14.724 9.343h2.461c-0.048 0.553-0.099 1.108-0.145 1.661 0.959 0.070 1.891 0.375 2.732 0.829-0.364 0.908-0.727 1.814-1.094 2.721-0.678-0.57-1.561-0.917-2.524-0.917-0.014 0-0.028 0-0.042 0l0.002-0c-0.006-0-0.013-0-0.020-0-0.24 0-0.463 0.068-0.653 0.186l0.005-0.003c-0.126 0.086-0.216 0.217-0.247 0.369l-0.001 0.004c-0.008 0.034-0.013 0.073-0.013 0.114 0 0.092 0.024 0.178 0.065 0.252l-0.001-0.003c0.083 0.114 0.201 0.197 0.337 0.236l0.004 0.001c0.272 0.096 0.564 0.102 0.848 0.132 0.669 0.081 1.338 0.195 1.969 0.433 0.49 0.186 0.959 0.465 1.293 0.873 0.317 0.377 0.502 0.851 0.572 1.338 0.081 0.561 0.057 1.143-0.119 1.69-0.147 0.461-0.376 0.859-0.672 1.196l0.003-0.004c-0.625 0.721-1.545 1.153-2.487 1.265 0.031 0.591 0.067 1.18 0.1 1.772h-2.332c0.029-0.586 0.070-1.171 0.096-1.757-0.664-0.028-1.288-0.165-1.866-0.392l0.039 0.014c-0.614-0.237-1.143-0.515-1.634-0.845l0.029 0.019 1.108-2.833c0.422 0.352 0.867 0.679 1.357 0.928 0.525 0.268 1.108 0.439 1.7 0.445 0.281 0.003 0.57-0.012 0.836-0.108 0.173-0.054 0.313-0.173 0.394-0.327l0.002-0.004c0.032-0.069 0.051-0.15 0.051-0.236 0-0.117-0.035-0.226-0.096-0.316l0.001 0.002c-0.084-0.1-0.191-0.179-0.313-0.227l-0.005-0.002c-0.146-0.058-0.316-0.104-0.493-0.129l-0.012-0.001c-0.634-0.102-1.271-0.185-1.885-0.383-0.492-0.16-0.972-0.383-1.364-0.724-0.245-0.212-0.446-0.467-0.591-0.755l-0.006-0.014c-0.186-0.388-0.295-0.843-0.295-1.323 0-0.034 0.001-0.069 0.002-0.103l-0 0.005c0-0.543 0.112-1.095 0.384-1.574 0.236-0.426 0.596-0.775 0.999-1.041 0.458-0.292 0.986-0.537 1.547-0.707l0.046-0.012-0.073-1.748z"></path>
</symbol>
<symbol id="icon-mail" viewBox="0 0 32 32">
<path fill="#caff33" style="fill: var(--color1, #caff33)" d="M2.667 11.77v10.897c0 2.104 1.706 3.81 3.81 3.81v0h19.048c2.104 0 3.81-1.706 3.81-3.81v0-10.895l-11.337 6.976c-0.568 0.355-1.257 0.565-1.996 0.565s-1.428-0.21-2.012-0.574l0.016 0.009-11.337-6.978z"></path>
<path fill="#caff33" style="fill: var(--color1, #caff33)" d="M29.333 9.534v-0.201c0-2.104-1.706-3.81-3.81-3.81v0h-19.048c-2.104 0-3.81 1.706-3.81 3.81v0 0.201l12.335 7.59c0.284 0.177 0.629 0.282 0.998 0.282s0.714-0.105 1.006-0.287l-0.008 0.005 12.335-7.59z"></path>
</symbol>
<symbol id="icon-loc" viewBox="0 0 30 32">
<path fill="#caff33" style="fill: var(--color1, #caff33)" d="M14.653 29.144c-0.076-0.044-0.186-0.11-0.323-0.195l-0.101-0.060c-1.612-1.023-3.098-2.226-4.433-3.585-2.469-2.528-5.033-6.325-5.033-11.209v0c0-5.786 4.69-10.476 10.476-10.476s10.476 4.69 10.476 10.476c0 4.885-2.565 8.681-5.033 11.209-1.24 1.269-2.478 2.243-3.406 2.898-0.465 0.328-0.853 0.579-1.129 0.747-0.137 0.085-0.247 0.149-0.323 0.195l-0.090 0.052-0.037 0.020 0.005-0.003c-0.138 0.075-0.296 0.118-0.464 0.118s-0.326-0.043-0.459-0.116l-0.126-0.072zM15.238 17.905c2.104 0 3.81-1.706 3.81-3.81s-1.706-3.81-3.81-3.81v0c-2.104 0-3.81 1.706-3.81 3.81s1.706 3.81 3.81 3.81v0z"></path>
</symbol>
<symbol id="icon-phone" viewBox="0 0 32 32">
<path fill="#caff33" style="fill: var(--color1, #caff33)" d="M2.667 6.476c0-2.104 1.706-3.81 3.81-3.81v0h1.742c1.093 0 2.045 0.744 2.31 1.804l1.403 5.617c0.045 0.173 0.071 0.372 0.071 0.576 0 0.776-0.371 1.465-0.946 1.9l-0.006 0.004-1.643 1.233c-0.171 0.128-0.207 0.315-0.16 0.446 1.483 3.955 4.549 7.020 8.406 8.47l0.099 0.033c0.131 0.049 0.318 0.012 0.446-0.158l1.233-1.643c0.439-0.58 1.128-0.952 1.904-0.952 0.205 0 0.403 0.026 0.593 0.074l-0.017-0.004 5.618 1.403c1.044 0.268 1.803 1.2 1.803 2.31v0 1.742c0 2.104-1.706 3.81-3.81 3.81v0h-2.857c-11.046 0-20-8.954-20-20v-2.857z"></path>
</symbol>
<symbol id="icon-twitter" viewBox="0 0 32 32">
<path d="M10.067 29c12.072 0 18.677-10.005 18.677-18.678 0-0.282-0.006-0.568-0.019-0.85 1.29-0.94 2.377-2.066 3.245-3.351l0.030-0.047c-1.098 0.502-2.371 0.865-3.706 1.024l-0.061 0.006c1.356-0.823 2.376-2.084 2.873-3.584l0.013-0.047c-1.2 0.724-2.596 1.276-4.083 1.579l-0.085 0.014c-1.202-1.275-2.901-2.068-4.787-2.068-3.63 0-6.573 2.943-6.573 6.573 0 0.525 0.062 1.036 0.178 1.526l-0.009-0.045c-5.467-0.282-10.277-2.879-13.503-6.821l-0.026-0.033c-0.558 0.945-0.887 2.083-0.887 3.298 0 2.268 1.149 4.268 2.896 5.449l0.023 0.015c-1.097-0.036-2.118-0.335-3.009-0.836l0.033 0.017v0.080c0 0.001 0 0.003 0 0.004 0 3.167 2.243 5.81 5.226 6.427l0.043 0.007c-0.516 0.147-1.109 0.231-1.721 0.231-0.439 0-0.868-0.043-1.282-0.126l0.042 0.007c0.864 2.628 3.27 4.504 6.123 4.563l0.007 0c-2.216 1.754-5.052 2.813-8.134 2.813-0.56 0-1.112-0.035-1.653-0.103l0.065 0.007c2.843 1.849 6.322 2.949 10.057 2.949 0.004 0 0.007 0 0.011 0h-0.001z"></path>
</symbol>
<symbol id="icon-linkedin" viewBox="0 0 32 32">
<path d="M29.632 0h-27.269c-1.307 0-2.363 1.032-2.363 2.306v27.382c0 1.275 1.056 2.312 2.363 2.312h27.269c1.306 0 2.368-1.037 2.368-2.306v-27.39c0-1.272-1.062-2.304-2.368-2.304zM9.494 27.269h-4.752v-15.275h4.752v15.275zM7.118 9.912c-0.021 0.001-0.046 0.001-0.071 0.001-1.52 0-2.752-1.232-2.752-2.752s1.232-2.752 2.752-2.752c0.022 0 0.043 0 0.065 0.001l-0.003-0c0.001 0 0.003 0 0.005 0 1.52 0 2.752 1.232 2.752 2.752 0 1.518-1.229 2.749-2.747 2.752h-0zM27.269 27.269h-4.744v-7.424c0-1.77-0.032-4.051-2.469-4.051-2.469 0-2.843 1.931-2.843 3.925v7.55h-4.738v-15.275h4.55v2.088h0.062c0.63-1.2 2.181-2.469 4.486-2.469 4.806 0 5.694 3.162 5.694 7.275v8.381z"></path>
</symbol>
<symbol id="icon-facebook" viewBox="0 0 32 32">
<path d="M32 16c0-8.837-7.163-16-16-16s-16 7.163-16 16c0 7.986 5.851 14.605 13.501 15.805v-11.179h-4.064v-4.626h4.064v-3.525c0-4.010 2.387-6.224 6.043-6.224 1.749 0 3.581 0.312 3.581 0.312v3.936h-2.016c-1.989 0-2.608 1.234-2.608 2.501v3h4.437l-0.709 4.624h-3.728v11.181c7.648-1.2 13.499-7.819 13.499-15.805z"></path>
</symbol>
<symbol id="icon-pot" viewBox="0 0 32 32">
<path fill="#caff33" style="fill: var(--color1, #caff33)" d="M4.501 4c-1.382 0-2.501 1.12-2.501 2.501v1c0 1.381 1.12 2.499 2.501 2.499h23c1.381 0 2.499-1.12 2.499-2.501v-1c0-1.381-1.12-2.499-2.501-2.499h-22.999z"></path>
<path fill="#caff33" style="fill: var(--color1, #caff33)" d="M4.115 12l0.72 12.235c0.128 2.105 1.867 3.765 3.993 3.765 0 0 0 0 0 0h14.343c0 0 0 0 0 0 2.126 0 3.865-1.659 3.993-3.753l0.001-0.011 0.72-12.235h-23.77zM16 14c0.552 0 1 0.448 1 1v6.586l2.293-2.294c0.181-0.181 0.431-0.293 0.707-0.293 0.553 0 1 0.448 1 1 0 0.276-0.112 0.526-0.293 0.707l-4 4c-0.181 0.181-0.431 0.293-0.707 0.293s-0.526-0.112-0.707-0.293v0l-4-4c-0.181-0.181-0.293-0.431-0.293-0.707 0-0.553 0.448-1 1-1 0.276 0 0.526 0.112 0.707 0.293l2.293 2.294v-6.586c0-0.552 0.448-1 1-1z"></path>
</symbol>
<symbol id="icon-camera" viewBox="0 0 32 32">
<path fill="#caff33" style="fill: var(--color1, #caff33)" d="M16 10c-1.657 0-3 1.343-3 3s1.343 3 3 3v0c1.657 0 3-1.343 3-3s-1.343-3-3-3v0z"></path>
<path fill="#caff33" style="fill: var(--color1, #caff33)" d="M2.001 6.501v12.999c0 1.381 1.119 2.5 2.499 2.501h22.999c1.381 0 2.501-1.119 2.501-2.499v-13c0-1.381-1.119-2.501-2.499-2.501h-23c-1.381 0-2.501 1.119-2.501 2.501zM11 13c0-2.761 2.239-5 5-5s5 2.239 5 5v0c0 2.761-2.239 5-5 5s-5-2.239-5-5v0zM25 12h0.010c0.552 0 1 0.448 1 1v0.010c0 0.552-0.448 1-1 1h-0.010c-0.552 0-1-0.448-1-1v-0.010c0-0.552 0.448-1 1-1zM6 13c0-0.552 0.448-1 1-1h0.010c0.552 0 1 0.448 1 1v0.010c0 0.552-0.448 1-1 1v0h-0.010c-0.552 0-1-0.448-1-1v0-0.010z"></path>
<path fill="#caff33" style="fill: var(--color1, #caff33)" d="M3 24c-0.552 0-1 0.448-1 1s0.448 1 1 1v0c7.2 0 14.174 0.963 20.8 2.766 1.587 0.433 3.2-0.743 3.2-2.425v-1.341c0-0.552-0.448-1-1-1v0h-23z"></path>
</symbol>
<symbol id="icon-briefcase" viewBox="0 0 32 32">
<path fill="#caff33" style="fill: var(--color1, #caff33)" d="M14.005 19.936c-0.899 0-1.425-0.506-1.425-1.414v-1.051c-4.184-0.289-8.076-1.191-11.702-2.619l0.265 0.092v-2.139c4.8 2.126 9.614 2.879 14.85 2.879 5.25 0 10.064-0.752 14.864-2.879v2.139c-3.361 1.337-7.252 2.24-11.314 2.522l-0.123 0.007v1.050c0 0.907-0.526 1.413-1.425 1.413h-3.991zM5.109 28.559h21.783c2.656 0 3.966-1.297 3.966-3.954v-12.617c0-2.659-1.31-3.955-3.966-3.955h-21.783c-2.643 0-3.966 1.296-3.966 3.954v12.617c0 2.658 1.322 3.954 3.966 3.954zM9.486 9.16h1.99v-2.295c0-0.986 0.577-1.543 1.578-1.543h5.891c1.002 0 1.566 0.557 1.566 1.543v2.269h1.991v-2.126c0-2.439-1.271-3.579-3.594-3.579h-5.829c-2.193 0-3.593 1.141-3.593 3.579v2.152z"></path>
</symbol>
<symbol id="icon-hand-lamp" viewBox="0 0 32 32">
<path fill="#caff33" style="fill: var(--color1, #caff33)" d="M18.872 7.337c0.036 0.040 0.041 0.053 0.048 0.053 0.58 0.080 0.851 0.515 1.16 0.949 0.359 0.493 0.787 0.944 1.244 1.355 1.203 1.085 1.941 2.4 2.188 4 0.428 2.804-1.179 5.684-3.819 6.804-4.005 1.701-8.48-0.885-8.944-5.213-0.247-2.307 0.597-4.213 2.357-5.713 0.56-0.482 1.036-1.038 1.42-1.659l0.018-0.030c0.080-0.118 0.19-0.211 0.318-0.269l0.005-0.002c0.2-0.093 0.423-0.147 0.675-0.235-0.073-0.090-0.141-0.169-0.21-0.245l0.004 0.005c-0.393-0.405-0.787-0.821-1.185-1.213-0.124-0.113-0.201-0.274-0.201-0.454 0-0.012 0-0.024 0.001-0.036l-0 0.002c0.013-0.832 0.007-1.66 0.007-2.493 0-0.333 0.411-0.867 0.745-0.932 0.381-0.076 0.773-0.117 1.155-0.193 0.121-0.026 0.225-0.091 0.299-0.18l0.001-0.001c0.557-0.751 1.536-0.757 2.088-0.013 0.089 0.101 0.208 0.174 0.342 0.206l0.004 0.001c0.351 0.076 0.709 0.117 1.067 0.181 0.357 0.071 0.739 0.533 0.739 0.897 0 0.84-0.005 1.684 0.007 2.523 0 0.010 0.001 0.021 0.001 0.032 0 0.191-0.082 0.364-0.212 0.484l-0 0c-0.445 0.452-0.873 0.915-1.32 1.391zM16.409 10.604c-0.017 0.071-0.036 0.111-0.029 0.147 0.076 0.393-0.107 0.563-0.469 0.709-0.693 0.288-1.003 0.868-0.987 1.613 0.019 0.739 0.417 1.196 1.087 1.437 0.293 0.105 0.597 0.181 0.891 0.28 0.271 0.089 0.54 0.177 0.799 0.283 0.216 0.088 0.34 0.259 0.316 0.504-0.011 0.226-0.182 0.41-0.402 0.44l-0.002 0c-0.229 0.047-0.476 0.088-0.693 0.036-0.421-0.1-0.827-0.271-1.272-0.423-0.2 0.264-0.428 0.563-0.704 0.933 0.416 0.181 0.773 0.369 1.156 0.497 0.216 0.071 0.304 0.164 0.276 0.387-0.019 0.16-0.007 0.323-0.007 0.505h0.897c0.405 0 0.423 0 0.4-0.416-0.013-0.259 0.045-0.4 0.328-0.435 0.162-0.034 0.305-0.095 0.431-0.179l-0.005 0.003c0.623-0.34 0.88-0.885 0.869-1.577-0.012-0.657-0.34-1.109-0.927-1.373-0.264-0.117-0.547-0.205-0.827-0.299-0.352-0.117-0.704-0.223-1.056-0.352-0.217-0.083-0.307-0.259-0.288-0.493 0.017-0.223 0.152-0.375 0.357-0.409 0.247-0.041 0.511-0.065 0.751-0.024 0.293 0.053 0.569 0.187 0.88 0.293 0.195-0.299 0.393-0.616 0.628-0.987-0.269-0.121-0.499-0.275-0.745-0.316-0.347-0.059-0.451-0.216-0.411-0.545 0.013-0.076-0.093-0.228-0.157-0.235-0.352-0.017-0.721-0.005-1.085-0.005zM16.725 30.921c-1.249 0-2.505-0.035-3.755 0.012-0.839 0.029-1.553-0.223-2.228-0.669-0.984-0.65-1.836-1.388-2.582-2.221l-0.011-0.012c-1.125-1.285-2.264-2.569-3.389-3.853-0.921-1.057-0.505-2.617 0.809-3.045 0.152-0.053 0.328-0.071 0.487-0.071 1.044-0.005 2.093-0.011 3.137 0.007 0.147 0 0.323 0.076 0.429 0.176 0.715 0.692 1.419 1.401 2.117 2.111 0.14 0.141 0.269 0.171 0.468 0.141 0.423-0.064 0.857-0.123 1.285-0.123 1.976-0.013 3.947-0.007 5.924-0.007 0.675 0 1.173 0.347 1.349 0.92 0.269 0.869-0.364 1.684-1.332 1.691-1.307 0.005-2.621 0-3.929 0-0.235 0-0.469-0.007-0.704 0-0.423 0.012-0.699 0.281-0.704 0.663 0 0.387 0.276 0.68 0.693 0.68 2.080 0.007 4.163 0.007 6.245 0 0.423 0 0.728-0.235 1.021-0.516 1.36-1.307 2.72-2.616 4.088-3.919 0.557-0.533 1.296-0.556 1.824-0.081 0.569 0.516 0.58 1.349 0.005 1.929-0.604 0.616-1.22 1.197-1.829 1.789-1.349 1.307-2.699 2.609-4.041 3.919-0.329 0.316-0.693 0.48-1.156 0.48-1.408-0.005-2.815 0-4.223 0zM9.747 6.133l1.693 1.696c-0.345 0.347-0.709 0.709-1.072 1.067-0.54-0.556-1.109-1.143-1.653-1.707l1.031-1.055zM24.556 6.133c0.347 0.347 0.704 0.716 1.037 1.051-0.556 0.557-1.137 1.139-1.7 1.696-0.34-0.341-0.699-0.711-1.056-1.068 0.557-0.547 1.132-1.109 1.719-1.677zM25.905 15.379c0-0.499-0.007-0.956 0.005-1.413 0-0.059 0.112-0.165 0.171-0.165 0.318-0.006 0.694-0.009 1.070-0.009s0.752 0.003 1.126 0.009l-0.056-0.001c0.059 0 0.171 0.088 0.171 0.135 0.012 0.476 0.005 0.951 0.005 1.444h-2.493zM8.379 15.396c-0.809 0-1.567 0.005-2.329-0.007-0.059 0-0.152-0.111-0.159-0.175-0.007-0.184-0.011-0.399-0.011-0.616s0.004-0.432 0.012-0.647l-0.001 0.031c0-0.065 0.117-0.183 0.183-0.183 0.314-0.006 0.685-0.009 1.056-0.009s0.742 0.003 1.112 0.009l-0.056-0.001c0.064 0 0.181 0.093 0.181 0.153 0.017 0.457 0.012 0.927 0.012 1.443z"></path>
</symbol>
<symbol id="icon-hand" viewBox="0 0 32 32">
<path fill="#caff33" style="fill: var(--color1, #caff33)" d="M26.301 14.953c0 0.797 0.011 1.589-0.005 2.387-0.011 0.431 0.112 0.809 0.337 1.165 0.579 0.935 1.344 1.717 2.12 2.488 0.289 0.289 0.589 0.561 0.893 0.829 0.135 0.106 0.22 0.269 0.22 0.452 0 0.007-0 0.014-0 0.021l0-0.001c-0.011 0.877-0.011 1.748-0.005 2.624 0.005 0.729-0.316 1.276-0.985 1.58-0.685 0.309-1.327 0.179-1.889-0.299-1.161-0.997-2.317-2-3.473-2.997-0.787-0.681-1.569-1.375-2.373-2.036-0.283-0.236-0.62-0.409-0.947-0.587-0.422-0.242-0.928-0.386-1.468-0.386-0.033 0-0.067 0.001-0.1 0.002l0.005-0c-0.156 0.008-0.339 0.013-0.523 0.013-0.249 0-0.497-0.009-0.742-0.025l0.033 0.002c-0.593-0.047-1.016-0.451-1.096-1.008-0.006-0.044-0.009-0.094-0.009-0.145 0-0.477 0.295-0.886 0.712-1.053l0.008-0.003c0.188-0.073 0.396-0.105 0.6-0.105 1.541-0.011 3.084-0.005 4.631-0.005 0.579 0 0.787-0.204 0.787-0.776 0-1.155-0.005-2.309 0-3.464 0.005-0.44-0.149-0.787-0.487-1.087-1.944-1.711-3.877-3.432-5.813-5.152-0.52-0.461-0.579-1.144-0.145-1.643 0.428-0.499 1.129-0.547 1.68-0.125 2.48 1.889 4.953 3.779 7.443 5.657 0.412 0.309 0.604 0.687 0.6 1.187-0.012 0.828-0.007 1.657-0.007 2.492zM1.072 23.685c0-0.472 0.005-0.944-0.005-1.416-0.005-0.184 0.069-0.305 0.193-0.431 0.808-0.813 1.605-1.637 2.397-2.467 0.167-0.173 0.289-0.377 0.433-0.567 0.38-0.509 0.557-1.067 0.541-1.716-0.032-1.501 0.005-3.008-0.016-4.513-0.011-0.593 0.203-1.013 0.691-1.38 2.473-1.848 4.92-3.727 7.376-5.6 0.202-0.162 0.462-0.26 0.745-0.26 0.355 0 0.674 0.154 0.893 0.4l0.001 0.001c0.428 0.483 0.391 1.176-0.107 1.627-0.756 0.683-1.52 1.349-2.28 2.027-1.205 1.065-2.411 2.136-3.613 3.2-0.26 0.218-0.424 0.543-0.424 0.907 0 0.006 0 0.012 0 0.018v-0.001c0 1.223-0.005 2.447 0 3.675 0 0.451 0.236 0.671 0.701 0.671 1.589 0.005 3.173 0 4.764 0.005 0.749 0 1.275 0.515 1.259 1.208-0.010 0.547-0.412 0.998-0.936 1.084l-0.007 0.001c-0.32 0.048-0.659 0.069-0.985 0.037-1.097-0.105-2.023 0.288-2.843 0.929-0.835 0.651-1.616 1.373-2.413 2.061-1.173 1.008-2.34 2.027-3.517 3.029-0.953 0.813-2.36 0.456-2.768-0.704-0.046-0.138-0.074-0.296-0.075-0.461v-0c-0.011-0.452-0.005-0.908-0.005-1.365z"></path>
<path fill="#caff33" style="fill: var(--color1, #caff33)" d="M16.227 16.040v0.745h-1.343c0-0.205-0.005-0.405 0-0.604 0.005-0.147-0.039-0.211-0.193-0.247-0.476-0.108-0.893-0.313-1.248-0.593l0.007 0.005c0.245-0.32 0.481-0.624 0.696-0.907 0.407 0.151 0.776 0.329 1.167 0.419 0.284 0.063 0.6 0.021 0.893-0.027 0.225-0.036 0.369-0.209 0.387-0.445 0.020-0.241-0.107-0.409-0.323-0.493-0.363-0.137-0.744-0.241-1.113-0.363-0.267-0.089-0.547-0.168-0.808-0.277-0.615-0.257-0.941-0.715-0.957-1.387-0.016-0.703 0.251-1.269 0.893-1.573 0.417-0.2 0.776-0.347 0.568-0.929 0.453 0 0.851-0.005 1.252 0.011 0.043 0 0.117 0.131 0.117 0.204 0.027 0.447 0.027 0.436 0.451 0.583 0.245 0.084 0.481 0.205 0.749 0.325-0.225 0.341-0.407 0.64-0.611 0.924-0.032 0.041-0.16 0.037-0.236 0.016-0.353-0.089-0.696-0.205-1.049-0.273-0.139-0.027-0.299 0.016-0.444 0.053-0.213 0.057-0.359 0.199-0.373 0.429-0.017 0.227 0.084 0.4 0.293 0.483 0.273 0.111 0.552 0.195 0.829 0.284 0.307 0.1 0.621 0.173 0.916 0.283 0.851 0.325 1.193 0.84 1.151 1.685-0.043 0.776-0.529 1.353-1.333 1.58-0.085 0.029-0.198 0.059-0.313 0.085l-0.024 0.005z"></path>
</symbol>
<symbol id="icon-book" viewBox="0 0 32 32">
<path fill="#caff33" style="fill: var(--color1, #caff33)" d="M15 6.044c-1.974-1.282-4.388-2.044-6.981-2.044-0.007 0-0.013 0-0.020 0h0.001c-0.004 0-0.009 0-0.013 0-1.548 0-3.034 0.271-4.41 0.769l0.090-0.029c-0.392 0.141-0.667 0.51-0.667 0.943v0 19c0 0.552 0.448 1 1 1 0.12 0 0.234-0.021 0.34-0.059l-0.007 0.002c1.088-0.396 2.344-0.625 3.653-0.625 0.005 0 0.010 0 0.014 0h-0.001c2.66 0 5.097 0.943 7 2.515v-21.471zM17 27.515c1.88-1.565 4.321-2.515 6.983-2.515 0.006 0 0.012 0 0.018 0h-0.001c1.288 0 2.52 0.221 3.667 0.627 0.099 0.036 0.214 0.057 0.333 0.057 0.552 0 1-0.448 1-1 0-0 0-0.001 0-0.001v0-19c-0-0.433-0.275-0.801-0.66-0.94l-0.007-0.002c-1.287-0.469-2.772-0.74-4.32-0.74-0.005 0-0.009 0-0.014 0h0.001c-0.006 0-0.012 0-0.019 0-2.592 0-5.007 0.762-7.031 2.075l0.050-0.031v21.471z"></path>
</symbol>
<symbol id="icon-building" viewBox="0 0 32 32">
<path fill="#caff33" style="fill: var(--color1, #caff33)" d="M15.445 3.168c0.156-0.105 0.348-0.168 0.555-0.168s0.399 0.063 0.558 0.17l-0.004-0.002 12 8c0.275 0.181 0.454 0.489 0.454 0.838 0 0.552-0.448 1-1 1-0.211 0-0.406-0.065-0.567-0.176l0.003 0.002-11.445-7.631-11.445 7.631c-0.154 0.101-0.343 0.162-0.546 0.162-0.552 0-1-0.448-1-1 0-0.342 0.171-0.643 0.433-0.824l0.003-0.002 12-8z"></path>
<path fill="#caff33" style="fill: var(--color1, #caff33)" d="M27 13.776v13.224h1c0.552 0 1 0.448 1 1s-0.448 1-1 1v0h-24c-0.552 0-1-0.448-1-1s0.448-1 1-1v0h1v-13.224c0.001-0.497 0.364-0.909 0.84-0.986l0.006-0.001c3.047-0.502 6.558-0.789 10.136-0.789 0.006 0 0.013 0 0.019 0h-0.001c3.453 0 6.845 0.269 10.155 0.789 0.481 0.077 0.845 0.49 0.845 0.987v0zM17 17c0-0.552-0.448-1-1-1s-1 0.448-1 1v0 9c0 0.552 0.448 1 1 1s1-0.448 1-1v0-9zM21 16c0.552 0 1 0.448 1 1v0 9c0 0.552-0.448 1-1 1s-1-0.448-1-1v0-9c0-0.552 0.448-1 1-1v0zM12 17c0-0.552-0.448-1-1-1s-1 0.448-1 1v0 9c0 0.552 0.448 1 1 1s1-0.448 1-1v0-9z"></path>
<path fill="#caff33" style="fill: var(--color1, #caff33)" d="M16 10.5c0.828 0 1.5-0.672 1.5-1.5s-0.672-1.5-1.5-1.5v0c-0.828 0-1.5 0.672-1.5 1.5s0.672 1.5 1.5 1.5v0z"></path>
</symbol>
<symbol id="icon-dollar" viewBox="0 0 32 32">
<path fill="#caff33" style="fill: var(--color1, #caff33)" d="M13.952 11.661c0.303-0.24 0.663-0.415 1.048-0.525v3.727c-0.402-0.112-0.751-0.292-1.055-0.529l0.007 0.005c-0.525-0.417-0.728-0.908-0.728-1.339s0.203-0.921 0.728-1.339zM17 20.883v-3.765c0.463 0.113 0.885 0.304 1.228 0.561 0.569 0.427 0.772 0.915 0.772 1.321s-0.203 0.895-0.772 1.321c-0.348 0.256-0.76 0.45-1.205 0.555l-0.023 0.005z"></path>
<path fill="#caff33" style="fill: var(--color1, #caff33)" d="M16 3c7.18 0 13 5.82 13 13s-5.82 13-13 13c-7.18 0-13-5.82-13-13s5.82-13 13-13zM17 8c0-0.552-0.448-1-1-1s-1 0.448-1 1v0 1.088c-0.878 0.151-1.655 0.507-2.304 1.016l0.011-0.008c-0.949 0.755-1.483 1.8-1.483 2.904 0 1.105 0.533 2.149 1.484 2.904 0.669 0.533 1.469 0.863 2.292 1.008v3.971c-0.468-0.111-0.88-0.305-1.237-0.568l0.009 0.007-1.172-0.88c-0.165-0.125-0.374-0.2-0.6-0.2-0.552 0-1 0.448-1 1 0 0.326 0.156 0.616 0.398 0.798l0.002 0.002 1.172 0.88c0.711 0.533 1.559 0.86 2.428 1v1.079c0 0.552 0.448 1 1 1s1-0.448 1-1v0-1.080c0.924-0.142 1.746-0.495 2.443-1.009l-0.015 0.011c0.993-0.745 1.572-1.792 1.572-2.921s-0.579-2.176-1.572-2.921c-0.681-0.504-1.504-0.857-2.397-0.996l-0.031-0.004v-3.94c0.387 0.109 0.745 0.284 1.048 0.524l0.553 0.44c0.169 0.135 0.386 0.217 0.622 0.217 0.552 0 1-0.448 1-1 0-0.316-0.147-0.598-0.376-0.782l-0.002-0.002-0.553-0.44c-0.638-0.5-1.414-0.856-2.262-1.002l-0.030-0.004v-1.089z"></path>
</symbol>
<symbol id="icon-chan" viewBox="0 0 32 32">
<path fill="#caff33" style="fill: var(--color1, #caff33)" d="M3 3c-0.552 0-1 0.448-1 1s0.448 1 1 1v0h1v14c0 2.209 1.791 4 4 4v0h1.613l-1.563 4.684c-0.032 0.094-0.051 0.203-0.051 0.316 0 0.553 0.448 1.001 1.001 1.001 0.44 0 0.813-0.283 0.947-0.677l0.002-0.007 0.439-1.316h11.224l0.44 1.316c0.147 0.382 0.51 0.648 0.936 0.648 0.552 0 1-0.448 1-1 0-0.1-0.015-0.196-0.042-0.287l0.002 0.007-1.56-4.684h1.612c2.209 0 4-1.791 4-4v0-14h1c0.552 0 1-0.448 1-1s-0.448-1-1-1v0h-26zM11.053 25l0.667-2h8.56l0.667 2h-9.893zM21 9c0-0.552-0.448-1-1-1s-1 0.448-1 1v0 8c0 0.552 0.448 1 1 1s1-0.448 1-1v0-8zM17 12c0-0.552-0.448-1-1-1s-1 0.448-1 1v0 5c0 0.552 0.448 1 1 1s1-0.448 1-1v0-5zM13 15c0-0.552-0.448-1-1-1s-1 0.448-1 1v0 2c0 0.552 0.448 1 1 1s1-0.448 1-1v0-2z"></path>
</symbol>
<symbol id="icon-building1" viewBox="0 0 32 32">
<path fill="#caff33" style="fill: var(--color1, #caff33)" d="M4 3c-0.552 0-1 0.448-1 1s0.448 1 1 1v0 22h-1c-0.552 0-1 0.448-1 1s0.448 1 1 1v0h17v-24c0.552 0 1-0.448 1-1s-0.448-1-1-1v0h-16zM9 26v-3c0-0.552 0.448-1 1-1v0h4c0.552 0 1 0.448 1 1v0 3c0 0.552-0.448 1-1 1v0h-4c-0.552 0-1-0.448-1-1v0zM8 9c0-0.552 0.448-1 1-1v0h1c0.552 0 1 0.448 1 1s-0.448 1-1 1v0h-1c-0.552 0-1-0.448-1-1v0zM9 12c-0.552 0-1 0.448-1 1s0.448 1 1 1v0h1c0.552 0 1-0.448 1-1s-0.448-1-1-1v0h-1zM8 17c0-0.552 0.448-1 1-1v0h1c0.552 0 1 0.448 1 1s-0.448 1-1 1v0h-1c-0.552 0-1-0.448-1-1v0zM14 8c-0.552 0-1 0.448-1 1s0.448 1 1 1v0h1c0.552 0 1-0.448 1-1s-0.448-1-1-1v0h-1zM13 13c0-0.552 0.448-1 1-1v0h1c0.552 0 1 0.448 1 1s-0.448 1-1 1v0h-1c-0.552 0-1-0.448-1-1v0zM14 16c-0.552 0-1 0.448-1 1s0.448 1 1 1v0h1c0.552 0 1-0.448 1-1s-0.448-1-1-1v0h-1zM22 9v20h7c0.552 0 1-0.448 1-1s-0.448-1-1-1v0h-1v-16c0.552 0 1-0.448 1-1s-0.448-1-1-1v0h-6zM24 15c0-0.552 0.448-1 1-1v0h0.011c0.552 0 1 0.448 1 1v0 0.011c0 0.552-0.448 1-1 1v0h-0.011c-0.552 0-1-0.448-1-1v0-0.011zM25 18c-0.552 0-1 0.448-1 1v0 0.011c0 0.552 0.448 1 1 1h0.011c0.552 0 1-0.448 1-1v0-0.011c0-0.552-0.448-1-1-1v0h-0.011zM24 23c0-0.552 0.448-1 1-1v0h0.011c0.552 0 1 0.448 1 1v0 0.011c0 0.552-0.448 1-1 1v0h-0.011c-0.552 0-1-0.448-1-1v0-0.011z"></path>
</symbol>
<symbol id="icon-arrow-top" viewBox="0 0 32 32">
<path fill="none" stroke="#caff33" style="stroke: var(--color1, #caff33)" stroke-linejoin="round" stroke-linecap="round" stroke-miterlimit="4" stroke-width="2.6667" d="M8 25.333l17.333-17.333M25.333 8v16.64M25.333 8h-16.64"></path>
</symbol>
<symbol id="icon-arrow-down" viewBox="0 0 30 32">
<path fill="none"  style="stroke: var(--color1, #fff)" stroke-linejoin="miter" stroke-linecap="butt" stroke-miterlimit="4" stroke-width="2.5263" d="M22.737 12.211l-7.579 7.579-7.579-7.579"></path>
</symbol>
<symbol id="icon-point" viewBox="0 0 32 32">
<path stroke-linejoin="miter" stroke-linecap="butt" stroke-miterlimit="4" stroke-width="0.7273" d="M3.523 15.215l-0.001 0.002c-0.633 1.872-0.953 3.683-0.953 5.431v5.197c0 0.602 0.488 1.091 1.091 1.091v0h6.689c0.603 0 1.091-0.488 1.091-1.091v0-5.258c-0.018-2.205 0.333-4.209 1.049-6.019 0.658-1.639 1.455-3.22 2.389-4.74 0.104-0.165 0.165-0.366 0.165-0.581 0-0.38-0.192-0.715-0.484-0.913l-0.004-0.002-3.703-2.468c-0.168-0.115-0.376-0.183-0.599-0.183-0.271 0-0.518 0.101-0.707 0.266l0.001-0.001c-1.239 1.098-2.367 2.408-3.382 3.929l-0.001 0.001c-1.038 1.537-1.931 3.301-2.592 5.175l-0.050 0.164zM17.858 15.215v0.002c-0.633 1.872-0.953 3.683-0.953 5.431v5.197c0 0.602 0.488 1.091 1.091 1.091v0h6.689c0.602 0 1.091-0.488 1.091-1.091v0-5.258c-0.018-2.204 0.333-4.209 1.049-6.019 0.658-1.639 1.455-3.219 2.389-4.74 0.104-0.165 0.165-0.366 0.165-0.581 0-0.38-0.192-0.715-0.484-0.913l-0.004-0.002-3.703-2.468c-0.168-0.115-0.375-0.183-0.599-0.183-0.271 0-0.518 0.101-0.707 0.266l0.001-0.001c-1.24 1.098-2.367 2.408-3.383 3.929v0.001c-1.038 1.537-1.931 3.301-2.593 5.175l-0.050 0.164z"></path>
</symbol>
<symbol id="icon-prev" viewBox="0 0 32 32">
<path fill="none" stroke="#caff33" style="stroke: var(--color1, #caff33)" stroke-linejoin="round" stroke-linecap="round" stroke-miterlimit="4" stroke-width="1.7143" d="M24.666 16h-16.666M8 16l8-8M8 16l8 8"></path>
</symbol>
<symbol id="icon-next" viewBox="0 0 32 32">
<path fill="none" stroke="#caff33" style="stroke: var(--color1, #caff33)" stroke-linejoin="round" stroke-linecap="round" stroke-miterlimit="4" stroke-width="1.7143" d="M8 16h16.666M24.666 16l-8-8M24.666 16l-8 8"></path>
</symbol>
</defs>
</svg>

