<svg width="46" height="46" fill="none" xmlns="http://www.w3.org/2000/svg"><g filter="url(#a)"><path d="m5.844 20.921-.001.003c-.87 2.574-1.31 5.064-1.31 7.468v7.146a1.5 1.5 0 0 0 1.5 1.5h9.197a1.5 1.5 0 0 0 1.5-1.5V28.308c-.025-3.032.458-5.788 1.442-8.276.905-2.254 2-4.427 3.285-6.517a1.517 1.517 0 0 0-.443-2.058l-5.092-3.393a1.473 1.473 0 0 0-1.794.113c-1.704 1.51-3.254 3.311-4.65 5.402l-.001.001a32.162 32.162 0 0 0-3.633 7.341Zm19.711 0v.003c-.871 2.574-1.31 5.064-1.31 7.468v7.146a1.5 1.5 0 0 0 1.5 1.5h9.197a1.5 1.5 0 0 0 1.5-1.5V28.308c-.025-3.031.458-5.788 1.442-8.276.905-2.254 2-4.426 3.285-6.517a1.518 1.518 0 0 0-.443-2.058l-5.092-3.393a1.473 1.473 0 0 0-1.794.113l.331.375-.331-.375c-1.705 1.51-3.254 3.311-4.651 5.402v.001a32.163 32.163 0 0 0-3.634 7.341Z" fill="url(#b)" stroke="#CAFF33"/></g><defs><linearGradient id="b" x1="23.151" y1="8.067" x2="23.151" y2="36.538" gradientUnits="userSpaceOnUse"><stop stop-color="#CAFF33"/><stop offset="1" stop-color="#191919"/></linearGradient><filter id="a" x="-3" y="0" width="52" height="52" filterUnits="userSpaceOnUse" color-interpolation-filters="sRGB"><feFlood flood-opacity="0" result="BackgroundImageFix"/><feColorMatrix in="SourceAlpha" values="0 0 0 0 0 0 0 0 0 0 0 0 0 0 0 0 0 0 127 0" result="hardAlpha"/><feOffset dy="4"/><feGaussianBlur stdDeviation="2"/><feComposite in2="hardAlpha" operator="out"/><feColorMatrix values="0 0 0 0 0 0 0 0 0 0 0 0 0 0 0 0 0 0 0.25 0"/><feBlend in2="BackgroundImageFix" result="effect1_dropShadow_113_4985"/><feBlend in="SourceGraphic" in2="effect1_dropShadow_113_4985" result="shape"/></filter></defs></svg>